<?xml version="1.0" encoding="UTF-8" standalone="no"?>
<!-- Created with Inkscape (http://www.inkscape.org/) -->

<svg
   width="75"
   height="75"
   viewBox="0 0 19.843749 19.84375"
   version="1.1"
   id="svg5"
   xml:space="preserve"
   inkscape:export-filename="Alarm_b.png"
   inkscape:export-xdpi="96"
   inkscape:export-ydpi="96"
   inkscape:version="1.2.2 (732a01da63, 2022-12-09)"
   sodipodi:docname="timer_alarm.svg"
   xmlns:inkscape="http://www.inkscape.org/namespaces/inkscape"
   xmlns:sodipodi="http://sodipodi.sourceforge.net/DTD/sodipodi-0.dtd"
   xmlns="http://www.w3.org/2000/svg"
   xmlns:svg="http://www.w3.org/2000/svg"><sodipodi:namedview
     id="namedview7"
     pagecolor="#505050"
     bordercolor="#ffffff"
     borderopacity="1"
     inkscape:showpageshadow="0"
     inkscape:pageopacity="0"
     inkscape:pagecheckerboard="1"
     inkscape:deskcolor="#505050"
     inkscape:document-units="mm"
     showgrid="true"
     inkscape:zoom="10.35098"
     inkscape:cx="30.818338"
     inkscape:cy="45.985984"
     inkscape:window-width="2560"
     inkscape:window-height="1417"
     inkscape:window-x="-8"
     inkscape:window-y="1072"
     inkscape:window-maximized="1"
     inkscape:current-layer="layer1"><inkscape:grid
       type="xygrid"
       id="grid14659"
       spacingx="1.3229166"
       spacingy="1.3229166" /></sodipodi:namedview><defs
     id="defs2" /><g
     inkscape:label="Layer 1"
     inkscape:groupmode="layer"
     id="layer1"><rect
       style="fill:#1a1a1a;stroke:none;stroke-width:0.244984;stroke-linecap:butt;stroke-linejoin:bevel;stroke-miterlimit:100;stroke-dasharray:none;stroke-opacity:1;paint-order:fill markers stroke;fill-opacity:1"
       id="rect5153"
       width="19.598766"
       height="19.598766"
       x="0.12249189"
       y="0.12249189"
       ry="5.2031217" /><path
       d="m 9.921969,15.874999 q -1.1306288,0 -2.1180438,-0.42964 -0.987416,-0.429639 -1.718555,-1.160779 -0.73114,-0.731139 -1.160778,-1.718555 -0.4296393,-0.987415 -0.4296393,-2.118044 0,-1.1306277 0.4296393,-2.1180435 0.429638,-0.9874152 1.160778,-1.7185546 0.731139,-0.7311394 1.718555,-1.1607783 0.987415,-0.4296387 2.1180438,-0.4296387 1.130629,0 2.118043,0.4296387 0.987415,0.4296389 1.718554,1.1607783 0.73114,0.7311398 1.160779,1.718555 0.429639,0.9874154 0.429639,2.1180441 0,1.130628 -0.429639,2.118043 -0.429639,0.987416 -1.160779,1.718555 -0.731139,0.73114 -1.718554,1.160779 -0.987414,0.42964 -2.118043,0.42964 z m 0,-5.427017 z m 1.688403,2.532607 0.844204,-0.844203 -1.929606,-1.929605 V 7.4329729 H 9.3189672 V 10.689182 Z M 6.0627572,4.026013 6.9069602,4.8702155 4.3442027,7.4329729 3.5,6.5887703 Z m 7.7184218,0 2.562757,2.5627573 -0.844201,0.8442026 -2.562757,-2.5627574 z m -3.85921,10.642981 q 1.763779,0 2.992396,-1.228616 1.228614,-1.228616 1.228614,-2.992397 0,-1.7637798 -1.228614,-2.9923958 -1.228617,-1.2286159 -2.992396,-1.2286159 -1.7637808,0 -2.9923968,1.2286159 -1.228616,1.228616 -1.228616,2.9923958 0,1.763781 1.228616,2.992397 1.228616,1.228616 2.9923968,1.228616 z"
       id="path17670"
       style="display:inline;fill:#ffffff;stroke-width:0.015075" /><path
       d="M 8.2020812,4.5629071 V 3.3704867 H 11.779343 V 4.5629071 Z M 9.3945026,11.12122 H 10.586922 V 7.5439579 H 9.3945026 Z m 0.5962087,4.769683 q -1.1029874,0 -2.0792811,-0.424801 -0.9762954,-0.4248 -1.7066511,-1.155156 -0.7303584,-0.73036 -1.1551567,-1.706654 -0.4248006,-0.976293 -0.4248006,-2.079283 0,-1.102989 0.4248006,-2.0792832 Q 5.4744207,7.4694316 6.2047791,6.7390742 6.9351348,6.0087169 7.9114302,5.5839169 8.8877239,5.1591172 9.9907113,5.1591172 q 0.9241267,0 1.7737257,0.2981052 0.8496,0.298105 1.594864,0.8645047 l 0.834694,-0.8346944 0.834694,0.8346944 -0.834694,0.8346943 q 0.566401,0.7452625 0.864504,1.5948621 0.298105,0.8495995 0.298105,1.7737255 0,1.10299 -0.4248,2.079283 -0.424799,0.976294 -1.155157,1.706654 -0.730356,0.730356 -1.706653,1.155156 -0.976293,0.424801 -2.0792827,0.424801 z m 0,-1.192423 q 1.7290117,0 2.9512417,-1.222231 1.222229,-1.222231 1.222229,-2.95124 0,-1.7290098 -1.222229,-2.9512406 -1.22223,-1.2222307 -2.9512417,-1.2222307 -1.7290091,0 -2.9512375,1.2222307 -1.2222309,1.2222308 -1.2222309,2.9512406 0,1.729009 1.2222309,2.95124 1.2222284,1.222231 2.9512375,1.222231 z m 0,-4.173471 z"
       id="path20583"
       style="display:none;fill:#ffffff;stroke-width:0.0149053" /></g></svg>
